<svg width="484" height="163" viewBox="0 0 484 163" fill="none" xmlns="http://www.w3.org/2000/svg">
<g clip-path="url(#clip0_2348_772)">
<mask id="mask0_2348_772" style="mask-type:luminance" maskUnits="userSpaceOnUse" x="0" y="0" width="484" height="163">
<rect width="484" height="163" fill="white"/>
</mask>
<g mask="url(#mask0_2348_772)">
<path d="M-5 62.699C7 37.3657 46.4 -5.00099 108 28.199C185 69.699 200 97.199 274 62.699C348 28.199 382 20.699 440 62.699C486.4 96.299 513 76.699 520.5 62.699" stroke="#3CD856" stroke-width="4"/>
<path d="M-5 35.9999C20 7.49993 44.4 33.7999 106 66.9999C183 108.5 188.473 82.0136 261.5 45.4999C328.5 11.9999 380.5 48 438.5 89.9999C484.9 123.6 514.5 104 522 89.9999" stroke="#8950FC" stroke-width="4"/>
<path d="M-5 35.9999C20 7.49993 44.4 33.7999 106 66.9999C183 108.5 188.473 82.0136 261.5 45.4999C328.5 11.9999 380.5 48 438.5 89.9999C484.9 123.6 514.5 104 522 89.9999" stroke="#A700FF" stroke-width="4"/>
<path d="M-5 67.1472C20 38.6472 44.4 64.9472 106 98.1472C183 139.647 183.973 64.5135 257 27.9998C324 -5.50022 382 35.4998 440 77.4998C486.4 111.1 514.5 135.147 522 121.147" stroke="#EF4444" stroke-width="4"/>
</g>
</g>
<defs>
<clipPath id="clip0_2348_772">
<rect width="484" height="163" fill="white"/>
</clipPath>
</defs>
</svg>
