<svg width="36" height="34" viewBox="0 0 36 34" fill="none" xmlns="http://www.w3.org/2000/svg">
<path opacity="0.5" d="M34.1643 16C32.6615 22.7571 25.3982 27.8988 16.6846 27.8988C15.4492 27.8988 14.2161 27.7875 13 27.5762C15.9877 30.1631 20.6134 31.468 25.3935 30.761L31.7916 33.9199C31.9005 33.9733 32.0187 34 32.1369 34C32.2783 34 32.4189 33.9619 32.5433 33.8864C32.7705 33.7476 32.9095 33.502 32.9095 33.2374V27.4191C34.9052 25.6315 36 23.3771 36 21.035C36 19.2443 35.3533 17.5146 34.1643 16Z" fill="#68D585"/>
<path d="M16.5 0C7.40143 0 0 5.81984 0 12.9737C0 15.7233 1.08507 18.3448 3.14286 20.5747V28.2368C3.14286 28.5017 3.28429 28.7466 3.51529 28.8863C3.64179 28.9618 3.78479 29 3.92857 29C4.04879 29 4.169 28.9733 4.27979 28.9199L11.6105 25.3597C13.2094 25.7497 14.8524 25.9474 16.5 25.9474C25.5986 25.9474 33 20.1275 33 12.9737C33 5.81984 25.5986 0 16.5 0Z" fill="#68D585"/>
</svg>
