<svg width="35" height="38" viewBox="0 0 35 38" fill="none" xmlns="http://www.w3.org/2000/svg">
<path fill-rule="evenodd" clip-rule="evenodd" d="M8 10.6786C8 5.543 11.8233 0 18 0C24.1767 0 28 5.543 28 10.6786C28 18.2891 22.8092 23 18 23C13.1908 23 8 18.2891 8 10.6786ZM9.7025 11.5444C10.0642 17.6262 14.1725 21.3571 18 21.3571C21.8275 21.3571 25.935 17.627 26.2983 11.5468C23.8192 11.215 21.5025 10.1693 19.6433 8.52971C17.3467 10.5619 14.4175 11.6733 11.3092 11.6733C10.7783 11.6733 10.2433 11.6216 9.7025 11.5444Z" fill="#473BF0"/>
<path opacity="0.5" d="M32.9775 27.1827L24.3125 22C22.2817 23.7478 19.8542 24.7089 17.5 24.7089C15.1458 24.7089 12.7183 23.7478 10.6875 22L2.0225 27.1827C0.775 27.9287 0 29.2935 0 30.7439V37.1693C0 37.6287 0.373333 38 0.833333 38H16.6667V29.6931C16.6667 29.2337 17.0392 28.8624 17.5 28.8624C17.9608 28.8624 18.3333 29.2337 18.3333 29.6931V38H34.1667C34.6267 38 35 37.6287 35 37.1693V30.7439C35 29.2935 34.225 27.9287 32.9775 27.1827Z" fill="#473BF0"/>
</svg>
