<svg width="36" height="36" viewBox="0 0 36 36" fill="none" xmlns="http://www.w3.org/2000/svg">
<path d="M25.641 10.3592C23.526 8.2532 20.763 7.2002 18 7.2002V18.0002L10.359 25.6412C14.58 29.8622 21.411 29.8622 25.632 25.6412C29.853 21.4202 29.853 14.5802 25.641 10.3592Z" fill="#161C2D"/>
<path opacity="0.5" fill-rule="evenodd" clip-rule="evenodd" d="M0 18C0 8.055 8.055 0 18 0C27.945 0 36 8.055 36 18C36 27.936 27.945 36 18 36C8.055 36 0 27.945 0 18ZM3.6 18C3.6 25.956 10.044 32.4 18 32.4C25.956 32.4 32.4 25.956 32.4 18C32.4 10.044 25.956 3.6 18 3.6C10.044 3.6 3.6 10.044 3.6 18Z" fill="#161C2D"/>
</svg>
