<svg width="25" height="26" viewBox="0 0 25 26" fill="none" xmlns="http://www.w3.org/2000/svg">
<path d="M6.37428 2.62768C5.24218 3.78074 5.24218 5.64661 6.39524 6.79967L8.91102 9.31545C11.28 11.6845 11.28 15.542 8.91102 17.911L4.29876 13.2988C3.11425 12.1143 2.51675 10.5524 2.51675 9.00098C2.51675 7.44958 3.11425 5.8877 4.29876 4.70319L6.34283 2.65912C6.35331 2.64864 6.36379 2.63816 6.37428 2.62768Z" fill="#473BF0" stroke="white" stroke-width="2" stroke-miterlimit="10"/>
<path d="M8.38672 8.79029L6.39506 6.79863C5.242 5.64556 5.23152 3.79018 6.3741 2.62663C7.5062 1.5155 9.30917 1.53646 10.4308 2.65808C10.9968 3.22413 11.2799 3.96838 11.2799 4.70215C11.2799 5.43592 10.9968 6.18017 10.4308 6.74622L9.95908 7.21793" fill="#473BF0"/>
<path d="M8.38672 8.79029L6.39506 6.79863C5.242 5.64556 5.23152 3.79018 6.3741 2.62663C7.5062 1.5155 9.30917 1.53646 10.4308 2.65808C10.9968 3.22413 11.2799 3.96838 11.2799 4.70215C11.2799 5.43592 10.9968 6.18017 10.4308 6.74622L9.95908 7.21793" stroke="white" stroke-width="2" stroke-miterlimit="10"/>
<path d="M18.2715 23.2245C19.4036 22.0714 19.4036 20.2056 18.2505 19.0525L15.7348 16.5367C13.3657 14.1677 13.3657 10.3102 15.7348 7.94115L20.347 12.5534C21.5315 13.7379 22.129 15.2998 22.129 16.8512C22.129 18.4026 21.5315 19.9645 20.347 21.149L18.3029 23.1931C18.282 23.214 18.2715 23.2245 18.2715 23.2245Z" fill="#473BF0" stroke="white" stroke-width="2" stroke-miterlimit="10"/>
<path d="M16.2479 17.0715L18.2396 19.0632C19.3926 20.2163 19.4031 22.0716 18.2606 23.2352C17.1285 24.3463 15.3255 24.3254 14.2039 23.2037C13.6378 22.6377 13.3548 21.8934 13.3548 21.1597C13.3548 20.4259 13.6378 19.6816 14.2039 19.1156L14.686 18.6334" fill="#473BF0"/>
<path d="M16.2479 17.0715L18.2396 19.0632C19.3926 20.2163 19.4031 22.0716 18.2606 23.2352C17.1285 24.3463 15.3255 24.3254 14.2039 23.2037C13.6378 22.6377 13.3548 21.8934 13.3548 21.1597C13.3548 20.4259 13.6378 19.6816 14.2039 19.1156L14.686 18.6334" stroke="white" stroke-width="2" stroke-miterlimit="10"/>
</svg>
